PathFileType	4	(X/Y/Z)	57_2_23_p1_0-903_filt_butterworth.trc
DataRate	CameraRate	NumFrames	NumMarkers	Units	OrigDataRate	OrigDataStartFrame	OrigNumFrames
60.0	60.0	5	27	m	60.0	451	903
Frame#	Time	RHip			RKnee			RAnkle			RBigToe			RSmallToe			RHeel			LHip			LKnee			LAnkle			LBigToe			LSmallToe			LHeel			Neck			Head			Nose			RShoulder			RElbow			RWrist			RThumb			RIndex			RPinky			LShoulder			LElbow			LWrist			LThumb			LIndex			LPinky			
		X1	Y1	Z1	X2	Y2	Z2	X3	Y3	Z3	X4	Y4	Z4	X5	Y5	Z5	X6	Y6	Z6	X7	Y7	Z7	X8	Y8	Z8	X9	Y9	Z9	X10	Y10	Z10	X11	Y11	Z11	X12	Y12	Z12	X13	Y13	Z13	X14	Y14	Z14	X15	Y15	Z15	X16	Y16	Z16	X17	Y17	Z17	X18	Y18	Z18	X19	Y19	Z19	X20	Y20	Z20	X21	Y21	Z21	X22	Y22	Z22	X23	Y23	Z23	X24	Y24	Z24	X25	Y25	Z25	X26	Y26	Z26	X27	Y27	Z27	
451	7.516666666666667	0.25430768421502975	0.641204264715473	0.8594664018919218	0.24690986782996957	0.23743740638708133	0.7927791423825001	0.26299720737208737	-0.20675692540075685	0.8162137622992842	0.23186610990585865	-0.1737786684659198	0.6265606902371068	0.3025047656388201	-0.1881812893139107	0.6638282939159832	0.2590293352692388	-0.3297223595052383	0.9342389002771164	0.049127136984659224	0.6342815153758337	0.8504965180014425	0.04926995597925251	0.21792775590839428	0.8169269724499937	0.08494265300733848	-0.23296477613287714	0.8457640507915176	0.08248877973255447	-0.1747353961781271	0.6350372431720122	0.03446800976305628	-0.2188263258468426	0.6989452748254409	0.10060049402404724	-0.30603371914242494	0.8976286016724085	0.11642674862908196	1.2038641387441762	0.8482532933849622	0.09581333849375641	1.4335468223945391	0.8350893399900794	0.10642805208720749	1.3128938645360106	0.7512530902384819	0.2513446261779677	1.170986424313016	0.8258139515831053	0.4103100453678866	1.0641378224484324	0.7188626977579955	0.27032072268742824	1.2535295711361156	0.7269473522308458	0.20872630403767106	1.309994583967939	0.7621899100943387	0.20996869957664305	1.3219073843337537	0.7523673301878441	0.2269882129931144	1.3190994960150872	0.7208569028988042	-0.028686518031025482	1.1527205801872462	0.8334194377018999	-0.15873430735511174	1.0396349114588284	0.6896413659208822	-0.14180353248007305	1.0836614430230098	0.6513928448863978	-0.10478853477714245	1.093976372116257	0.6761224833344233	-0.12318759938958751	1.0762198359049562	0.6770069842456052	-0.09839750547471113	1.1494552067912036	0.6392315927355683	
452	7.533333333333333	0.2529442621835091	0.6408855238275846	0.8612886798829182	0.2452196973946234	0.23974493880420802	0.7916850001544831	0.2612805008802805	-0.20642772766115458	0.8154697363627361	0.23142942774956718	-0.1724716984307625	0.6251727192907671	0.30296397319643875	-0.1864846342798545	0.6614245084507584	0.2573095431398071	-0.3293971808365808	0.9338333835763034	0.047067874959791756	0.6348469948975881	0.852849962195869	0.047082795516673256	0.21777865018396658	0.8202254035341658	0.08395655359481297	-0.23183948616487116	0.844269407190616	0.08339180219052558	-0.17490515578531177	0.6361648210257131	0.03519428985145478	-0.21978889170713634	0.6990936383783519	0.10022220471069196	-0.30541322035640533	0.8964992829445362	0.11739455375077114	1.2036764460988745	0.8487612568949994	0.09206662330790105	1.433758019966541	0.8324385873081885	0.10501612260148913	1.3129327133680004	0.749901067689986	0.25226989652521337	1.1712883405972354	0.8261317483276223	0.4108082092714381	1.0581229033557449	0.7168336082700675	0.2747202029672612	1.2512611939316591	0.724608541910746	0.2108751095228611	1.311690260726722	0.7580279433861025	0.21134927790309116	1.3216600255960178	0.7530801015383997	0.2323285539115073	1.3209193879141186	0.7162270154728584	-0.027852485041446065	1.1489005984225766	0.8335379495849267	-0.1488925848713904	1.0336627072185232	0.6951935190470082	-0.12437131341743352	1.0967978609235922	0.6565072893753094	-0.093276353604997	1.1012358871427292	0.6847776489021815	-0.12164136472445755	1.0675655282527237	0.6733790778411932	-0.08020762972334614	1.1690734102288205	0.6472452660166603	
453	7.55	0.2516296845258694	0.6407153351635585	0.8625866750278929	0.2435649200903337	0.24182314736917346	0.790265336402868	0.2595701466904784	-0.20627707440062615	0.8149634227361722	0.23123947269357759	-0.17218098761459913	0.6243894896527835	0.3035325679597677	-0.18512153781568486	0.6590757165102897	0.2556331298006903	-0.3291631881350129	0.9331196568116215	0.045074754788705484	0.6352852595173326	0.854921250948935	0.045305573726042395	0.2177114213893714	0.8229852523225669	0.08279282290987006	-0.23087382320096428	0.8429324091716728	0.0844617805529081	-0.17559969066062484	0.6382603851663881	0.036155362518685424	-0.22081363131884185	0.6992798690125306	0.09976542761416561	-0.30473998516098233	0.8950468154208607	0.11814952465819488	1.2033316033208499	0.8491511412460832	0.08903113662443955	1.4333984744598243	0.8300846676150492	0.10351614373739815	1.3130024157672662	0.748712982854849	0.2536697232318038	1.1711752623433729	0.8263402917701613	0.41174302801211016	1.051528448012492	0.7147034946475856	0.27905385271688726	1.2485335841017329	0.7227279640012593	0.21272401514640157	1.3118653670297293	0.7546587392349737	0.2122240498216943	1.3213056076414946	0.7522363947668119	0.2377711094952212	1.3208262117686578	0.7136955001643746	-0.027073724787862997	1.1452815009839008	0.833269373814667	-0.13760105136757472	1.0266093388901283	0.6999403318591189	-0.09750978124394315	1.1204030699552578	0.672442155426046	-0.06875555110039767	1.1248056604947896	0.7042514966396769	-0.11339836760370178	1.0665463997131457	0.6736838058331422	-0.05278258081670155	1.2016975336338447	0.6690543259183308	
454	7.566666666666666	0.2503864474940457	0.6406228686908254	0.863401652293795	0.2418907837759229	0.24355283405477776	0.7886369242645017	0.2578602282628391	-0.2063258853019136	0.8147213151428799	0.23136782883878648	-0.17295892905137739	0.6244742754504886	0.30418362853487196	-0.18430930878793622	0.6572218679776256	0.25405336281218444	-0.32904826618154015	0.9321483105271423	0.043161166879610774	0.6355167333866573	0.8567724031891029	0.043858244930904275	0.2177127287994572	0.8253002374339432	0.0814843653885291	-0.23008652750156705	0.8417760591375564	0.08551234863933631	-0.17662309994532505	0.6407936126598698	0.037004832532517316	-0.22174647856953014	0.6994560699110303	0.0991247402684831	-0.3040696460848356	0.8934859049726371	0.11858959986717216	1.2027019283735674	0.849318156661834	0.08671348419920125	1.432237106177035	0.8276940201019107	0.1022039402344515	1.3131003413071245	0.747571397455259	0.25538923779899503	1.1703574319487635	0.8263777703635011	0.4130850957651533	1.044689866067681	0.7128034354908827	0.28340014424556903	1.2459129893064242	0.7215167572303985	0.21436119917148225	1.3102776998361894	0.7513418019943436	0.2123829538518026	1.321057346788362	0.7499530518974975	0.2429953254582533	1.3186840265790543	0.7130315212069749	-0.026320190520638293	1.1418986788196155	0.8328386118331399	-0.12626883927696053	1.0185301555041912	0.7029584209066322	-0.06786761326005442	1.1464058442670226	0.6925109244524077	-0.04105054625490444	1.1519814632734913	0.7244055457951237	-0.10579676427522472	1.0640747436067983	0.6724756884812436	-0.02353720212515191	1.2366142228972943	0.6970009993191322	
455	7.583333333333333	0.24917942285045527	0.6404583283814768	0.8638676007855259	0.24017852768264009	0.24480179232696744	0.7869050378205041	0.25616340411836497	-0.20657055625884077	0.8147320802783256	0.23180106381200227	-0.174588233199956	0.6254852951906046	0.3048601321476382	-0.18405600097826114	0.656165729946327	0.25261134842790883	-0.3290474836214259	0.9310065581387723	0.041374317137713695	0.6354648802269879	0.8583874129214633	0.04261407957059599	0.21768813835017778	0.8273152056423236	0.08008531645725875	-0.2294574664884248	0.8407973379064487	0.08639857752705968	-0.17774468418234063	0.6431227869808434	0.0374844014374217	-0.22243495307731045	0.6995498639069198	0.09821348918774742	-0.30342769982096435	0.8918910339808994	0.11877650673509069	1.2019284029867443	0.8489547530434474	0.08509006494966523	1.430259597604398	0.8243155588800688	0.10130685815345758	1.313283100932409	0.7460492953926511	0.25731442542698596	1.1686862701539693	0.8266538345989114	0.4146293348845699	1.0377926072919763	0.7115041083021851	0.28767828335878576	1.2436833281077264	0.7210426849987582	0.21544601126958088	1.3064579249876678	0.7480642311201272	0.21187912368791612	1.3209081491297745	0.7468259903565178	0.24778460327205334	1.3144822329335202	0.7128274469634821	-0.025623552697234243	1.138727991036708	0.8323294782126744	-0.1160902711886809	1.0099760115238134	0.703501755486182	-0.04052256874868915	1.1686343022647518	0.7108655964679413	-0.018557130231292632	1.1709737505141073	0.7362045146081656	-0.10190388997741291	1.0559553229236365	0.6669378674402221	0.0004688504366849554	1.2630372596091943	0.7216193362911488	
